<svg width="25" height="25" viewBox="0 0 25 25" fill="none" xmlns="http://www.w3.org/2000/svg">
<path d="M9.26568 21.1294C8.63653 21.1005 8.04252 20.8311 7.60628 20.3768C7.08477 19.8832 6.61851 19.3343 6.21573 18.7398C5.58691 17.8548 5.08764 16.8845 4.73305 15.8584C4.33221 14.7546 4.11661 13.5921 4.09496 12.418C4.05515 11.2661 4.33122 10.1252 4.89327 9.11897C5.30501 8.3936 5.89578 7.78585 6.6092 7.35372C7.31471 6.92347 8.12186 6.68841 8.94806 6.67258C9.57124 6.70437 10.1845 6.84176 10.7617 7.0789C11.2224 7.27719 11.7056 7.41528 12.2012 7.48926C12.7464 7.37043 13.2786 7.19861 13.7903 6.97626C14.3961 6.73402 15.0385 6.5959 15.6903 6.56773C15.7773 6.56703 15.8634 6.56633 15.9464 6.57565C17.3769 6.60502 18.7128 7.29628 19.5623 8.44656C18.9095 8.80256 18.3682 9.33261 17.9986 9.97779C17.629 10.623 17.4455 11.358 17.4686 12.1012C17.4667 12.6697 17.5853 13.232 17.8166 13.7513C18.0478 14.2706 18.3866 14.735 18.8104 15.1138C19.1963 15.4755 19.6446 15.7643 20.1335 15.9662C20.0359 16.267 19.9233 16.558 19.8037 16.851C19.5319 17.4986 19.1951 18.1169 18.7985 18.6965C18.4237 19.2769 17.9864 19.8144 17.4943 20.2994C17.0455 20.752 16.4446 21.0217 15.8082 21.0562C15.2683 21.0367 14.7371 20.9144 14.243 20.6959C13.7103 20.469 13.1387 20.3469 12.5598 20.3365C11.9647 20.3531 11.3784 20.4838 10.8326 20.7216C10.3614 20.9389 9.85709 21.0758 9.34067 21.1268L9.26568 21.1294V21.1294ZM12.298 6.59533C12.223 6.59594 12.148 6.59655 12.0729 6.58816C12.0561 6.46924 12.0468 6.3494 12.045 6.22932C12.0696 5.23009 12.4522 4.27292 13.1232 3.5321C13.4984 3.10643 13.9546 2.75967 14.4651 2.51202C14.9408 2.26226 15.4615 2.1101 15.9968 2.06448C16.0128 2.19538 16.0139 2.32339 16.0149 2.4454C16.0088 3.42878 15.647 4.37674 14.9964 5.11413C14.682 5.54298 14.2775 5.89781 13.8113 6.15369C13.3451 6.40957 12.8286 6.56031 12.298 6.59533V6.59533Z" fill="black"/>
</svg>
