<svg width="25" height="25" viewBox="0 0 25 25" fill="none" xmlns="http://www.w3.org/2000/svg">
<g clip-path="url(#clip0_201_6587)">
<path d="M24.1001 12.0012C24.0462 5.3732 18.6293 0.0437258 12.0012 0.0976367C5.37317 0.151547 0.0437032 5.56833 0.0976148 12.1965C0.146337 18.1866 4.57542 23.1159 10.3201 23.9695L10.2519 15.5832L7.20468 15.608L7.17646 12.1389L10.2236 12.1141L10.2021 9.4701C10.1777 6.46229 11.9559 4.78629 14.6972 4.764C16.0103 4.75332 17.3856 4.97655 17.3856 4.97655L17.4096 7.92997L15.8963 7.94228C14.4053 7.95441 13.948 8.88331 13.9557 9.83244L13.974 12.0836L17.3025 12.0565L16.7986 15.53L14.0022 15.5527L14.0705 23.939C19.8005 22.9921 24.1488 17.9915 24.1001 12.0012Z" fill="#1877F2"/>
<path d="M16.7986 15.53L17.3024 12.0566L13.974 12.0836L13.9557 9.83247C13.948 8.88325 14.4054 7.95444 15.8963 7.94231L17.4095 7.93L17.3855 4.97658C17.3855 4.97658 16.0102 4.75335 14.6971 4.76403C11.9559 4.78632 10.1776 6.46232 10.2021 9.47013L10.2236 12.1141L7.17641 12.1389L7.20463 15.608L10.2518 15.5833L10.32 23.9696C10.9411 24.0617 11.5685 24.1054 12.1964 24.1001C12.8243 24.0952 13.4509 24.0414 14.0704 23.9391L14.0022 15.5527L16.7986 15.53Z" fill="white"/>
</g>
<defs>
<clipPath id="clip0_201_6587">
<rect width="24.0032" height="24.0032" fill="white" transform="translate(0 0.195251) rotate(-0.466018)"/>
</clipPath>
</defs>
</svg>
