<svg width="25" height="25" viewBox="0 0 25 25" fill="none" xmlns="http://www.w3.org/2000/svg">
<path d="M21.8895 10.0605L21.0839 10.067L21.0836 10.0255L12.0826 10.0987L12.1152 14.0991L17.7673 14.0532C16.9616 16.3886 14.7595 18.0783 12.1477 18.0995C8.83388 18.1265 6.12525 15.4616 6.09829 12.1477C6.07134 8.8339 8.73626 6.12528 12.0501 6.09832C13.5798 6.08588 14.9761 6.65162 16.0434 7.5856L18.8491 4.7338C17.0494 3.08366 14.6518 2.07649 12.0176 2.09791C6.4945 2.14284 2.05296 6.65722 2.09789 12.1803C2.14281 17.7033 6.65719 22.1449 12.1803 22.1C17.7033 22.055 22.1449 17.5407 22.0999 12.0176C22.0945 11.347 22.0201 10.693 21.8895 10.0605Z" fill="#FFC107"/>
<path d="M3.21319 7.51597L6.51863 9.89899C7.38981 7.69053 9.53039 6.11886 12.0502 6.09836C13.5798 6.08592 14.9761 6.65166 16.0434 7.58564L18.8492 4.73384C17.0495 3.0837 14.6519 2.07653 12.0176 2.09796C8.17622 2.1292 4.86252 4.32502 3.21319 7.51597Z" fill="#FF3D00"/>
<path d="M12.1801 22.0999C14.7634 22.0789 17.1026 21.0712 18.8642 19.4491L15.7475 16.855C14.7161 17.6527 13.4514 18.0899 12.1476 18.0995C9.54629 18.1206 7.32407 16.4799 6.47316 14.172L3.23226 16.7112C4.91377 19.9366 8.29319 22.1315 12.1801 22.0999Z" fill="#4CAF50"/>
<path d="M21.8894 10.0603L21.0838 10.0669L21.0835 10.0254L12.0826 10.0986L12.1151 14.099L17.7672 14.053C17.3818 15.1645 16.6791 16.1388 15.7461 16.8554L15.7476 16.8544L18.8642 19.4485C18.6468 19.6493 22.1405 17.0179 22.0999 12.0174C22.0944 11.3469 22.0201 10.6929 21.8894 10.0603Z" fill="#1976D2"/>
</svg>
