<?xml version="1.0" encoding="UTF-8" standalone="no"?><svg xmlns="http://www.w3.org/2000/svg" xmlns:xlink="http://www.w3.org/1999/xlink" contentStyleType="text/css" height="365px" preserveAspectRatio="none" style="width:1096px;height:365px;background:#FFFFFF;" version="1.1" viewBox="0 0 1096 365" width="1096px" zoomAndPan="magnify"><defs/><g><!--MD5=[30c9f3603c29291c660ce271a37cb446]
cluster project_bs::services::bill_data_repository--><g id="cluster_project_bs::services::bill_data_repository"><path d="M598.5,6 L924.5,6 A3.75,3.75 0 0 1 927,8.5 L934,28.2969 L1071.5,28.2969 A2.5,2.5 0 0 1 1074,30.7969 L1074,232.5 A2.5,2.5 0 0 1 1071.5,235 L598.5,235 A2.5,2.5 0 0 1 596,232.5 L596,8.5 A2.5,2.5 0 0 1 598.5,6 " fill="none" style="stroke:#000000;stroke-width:1.5;"/><line style="stroke:#000000;stroke-width:1.5;" x1="596" x2="934" y1="28.2969" y2="28.2969"/><text fill="#000000" font-family="sans-serif" font-size="14" font-weight="bold" lengthAdjust="spacing" textLength="325" x="600" y="20.9951">project_bs::services::bill_data_repository</text></g><!--MD5=[066b8e36c926b02047dd62d2b17eca62]
cluster project_bs::runtime_models::user::user_data--><g id="cluster_project_bs::runtime_models::user::user_data"><path d="M229.5,259 L586.5,259 A3.75,3.75 0 0 1 589,261.5 L596,281.2969 L596.5,281.2969 A2.5,2.5 0 0 1 599,283.7969 L599,355.5 A2.5,2.5 0 0 1 596.5,358 L229.5,358 A2.5,2.5 0 0 1 227,355.5 L227,261.5 A2.5,2.5 0 0 1 229.5,259 " fill="none" style="stroke:#000000;stroke-width:1.5;"/><line style="stroke:#000000;stroke-width:1.5;" x1="227" x2="596" y1="281.2969" y2="281.2969"/><text fill="#000000" font-family="sans-serif" font-size="14" font-weight="bold" lengthAdjust="spacing" textLength="356" x="231" y="273.9951">project_bs::runtime_models::user::user_data</text></g><!--MD5=[2d043cbe412e83855ecbe07d7fd0ae0d]
cluster project_bs::runtime_models::bill::bill_data--><g id="cluster_project_bs::runtime_models::bill::bill_data"><path d="M747.5,259 L1076.5,259 A3.75,3.75 0 0 1 1079,261.5 L1086,281.2969 L1086.5,281.2969 A2.5,2.5 0 0 1 1089,283.7969 L1089,355.5 A2.5,2.5 0 0 1 1086.5,358 L747.5,358 A2.5,2.5 0 0 1 745,355.5 L745,261.5 A2.5,2.5 0 0 1 747.5,259 " fill="none" style="stroke:#000000;stroke-width:1.5;"/><line style="stroke:#000000;stroke-width:1.5;" x1="745" x2="1086" y1="281.2969" y2="281.2969"/><text fill="#000000" font-family="sans-serif" font-size="14" font-weight="bold" lengthAdjust="spacing" textLength="328" x="749" y="273.9951">project_bs::runtime_models::bill::bill_data</text></g><!--MD5=[04988218db033858dacc7214af4208ab]
cluster project_bs::services::user_data_repository--><g id="cluster_project_bs::services::user_data_repository"><path d="M8.5,14 L348.5,14 A3.75,3.75 0 0 1 351,16.5 L358,36.2969 L569.5,36.2969 A2.5,2.5 0 0 1 572,38.7969 L572,224.5 A2.5,2.5 0 0 1 569.5,227 L8.5,227 A2.5,2.5 0 0 1 6,224.5 L6,16.5 A2.5,2.5 0 0 1 8.5,14 " fill="none" style="stroke:#000000;stroke-width:1.5;"/><line style="stroke:#000000;stroke-width:1.5;" x1="6" x2="358" y1="36.2969" y2="36.2969"/><text fill="#000000" font-family="sans-serif" font-size="14" font-weight="bold" lengthAdjust="spacing" textLength="339" x="10" y="28.9951">project_bs::services::user_data_repository</text></g><!--MD5=[fa27411ec05370ff265d17c26815134b]
class project_bs::services::bill_data_repository.dart::BillDataRepository--><g id="elem_project_bs::services::bill_data_repository.dart::BillDataRepository"><rect codeLine="10" fill="#F1F1F1" height="178.375" id="project_bs::services::bill_data_repository.dart::BillDataRepository" rx="2.5" ry="2.5" style="stroke:#181818;stroke-width:0.5;" width="445" x="612.5" y="41"/><ellipse cx="749.75" cy="57" fill="#ADD1B2" rx="11" ry="11" style="stroke:#181818;stroke-width:1.0;"/><path d="M752.7188,62.6406 Q752.1406,62.9375 751.5,63.0781 Q750.8594,63.2344 750.1563,63.2344 Q747.6563,63.2344 746.3281,61.5938 Q745.0156,59.9375 745.0156,56.8125 Q745.0156,53.6875 746.3281,52.0313 Q747.6563,50.375 750.1563,50.375 Q750.8594,50.375 751.5,50.5313 Q752.1563,50.6875 752.7188,50.9844 L752.7188,53.7031 Q752.0938,53.125 751.5,52.8594 Q750.9063,52.5781 750.2813,52.5781 Q748.9375,52.5781 748.25,53.6563 Q747.5625,54.7188 747.5625,56.8125 Q747.5625,58.9063 748.25,59.9844 Q748.9375,61.0469 750.2813,61.0469 Q750.9063,61.0469 751.5,60.7813 Q752.0938,60.5 752.7188,59.9219 L752.7188,62.6406 Z " fill="#000000"/><text fill="#000000" font-family="sans-serif" font-size="14" lengthAdjust="spacing" textLength="162" x="770.25" y="61.8467">dart::BillDataRepository</text><line style="stroke:#181818;stroke-width:0.5;" x1="613.5" x2="1056.5" y1="73" y2="73"/><rect fill="none" height="6" style="stroke:#C82930;stroke-width:1.0;" width="6" x="620.5" y="83.6484"/><text fill="#000000" font-family="sans-serif" font-size="14" lengthAdjust="spacing" textLength="419" x="632.5" y="89.9951">CollectionReference&lt;Map&lt;String, dynamic&gt;&gt; _billCollection</text><ellipse cx="623.5" cy="102.9453" fill="none" rx="3" ry="3" style="stroke:#038048;stroke-width:1.0;"/><text fill="#000000" font-family="sans-serif" font-size="14" lengthAdjust="spacing" textLength="281" x="632.5" y="106.292">Stream&lt;List&lt;BillData&gt;?&gt; billDataStream</text><ellipse cx="623.5" cy="119.2422" fill="none" rx="3" ry="3" style="stroke:#038048;stroke-width:1.0;"/><text fill="#000000" font-family="sans-serif" font-size="14" lengthAdjust="spacing" textLength="226" x="632.5" y="122.5889">dynamic billDocumentSnapshots</text><ellipse cx="623.5" cy="135.5391" fill="none" rx="3" ry="3" style="stroke:#038048;stroke-width:1.0;"/><text fill="#000000" font-family="sans-serif" font-size="14" lengthAdjust="spacing" textLength="138" x="632.5" y="138.8857">UserData? userData</text><line style="stroke:#181818;stroke-width:0.5;" x1="613.5" x2="1056.5" y1="146.1875" y2="146.1875"/><ellipse cx="623.5" cy="159.8359" fill="#84BE84" rx="3" ry="3" style="stroke:#038048;stroke-width:1.0;"/><text fill="#000000" font-family="sans-serif" font-size="14" lengthAdjust="spacing" textLength="151" x="632.5" y="163.1826">T Function&lt;T&gt;() read</text><ellipse cx="623.5" cy="176.1328" fill="#84BE84" rx="3" ry="3" style="stroke:#038048;stroke-width:1.0;"/><text fill="#000000" font-family="sans-serif" font-size="14" lengthAdjust="spacing" textLength="134" x="632.5" y="179.4795">dynamic createBill()</text><ellipse cx="623.5" cy="192.4297" fill="#84BE84" rx="3" ry="3" style="stroke:#038048;stroke-width:1.0;"/><text fill="#000000" font-family="sans-serif" font-size="14" lengthAdjust="spacing" textLength="157" x="632.5" y="195.7764">dynamic pushBillData()</text><ellipse cx="623.5" cy="208.7266" fill="#84BE84" rx="3" ry="3" style="stroke:#038048;stroke-width:1.0;"/><text fill="#000000" font-family="sans-serif" font-size="14" lengthAdjust="spacing" textLength="236" x="632.5" y="212.0732">BillData? snapshotToRuntimeObj()</text></g><!--MD5=[3354a79dc7f1d1f645f9ad2e2bf417fe]
class project_bs::runtime_models::user::user_data.dart::UserData--><g id="elem_project_bs::runtime_models::user::user_data.dart::UserData"><rect fill="#F1F1F1" height="48" id="project_bs::runtime_models::user::user_data.dart::UserData" rx="2.5" ry="2.5" style="stroke:#181818;stroke-width:0.5;" width="133" x="343.5" y="294"/><ellipse cx="358.5" cy="310" fill="#ADD1B2" rx="11" ry="11" style="stroke:#181818;stroke-width:1.0;"/><path d="M361.4688,315.6406 Q360.8906,315.9375 360.25,316.0781 Q359.6094,316.2344 358.9063,316.2344 Q356.4063,316.2344 355.0781,314.5938 Q353.7656,312.9375 353.7656,309.8125 Q353.7656,306.6875 355.0781,305.0313 Q356.4063,303.375 358.9063,303.375 Q359.6094,303.375 360.25,303.5313 Q360.9063,303.6875 361.4688,303.9844 L361.4688,306.7031 Q360.8438,306.125 360.25,305.8594 Q359.6563,305.5781 359.0313,305.5781 Q357.6875,305.5781 357,306.6563 Q356.3125,307.7188 356.3125,309.8125 Q356.3125,311.9063 357,312.9844 Q357.6875,314.0469 359.0313,314.0469 Q359.6563,314.0469 360.25,313.7813 Q360.8438,313.5 361.4688,312.9219 L361.4688,315.6406 Z " fill="#000000"/><text fill="#000000" font-family="sans-serif" font-size="14" lengthAdjust="spacing" textLength="101" x="372.5" y="314.8467">dart::UserData</text><line style="stroke:#181818;stroke-width:0.5;" x1="344.5" x2="475.5" y1="326" y2="326"/><line style="stroke:#181818;stroke-width:0.5;" x1="344.5" x2="475.5" y1="334" y2="334"/></g><!--MD5=[28b2f9e0117623811f28053346750707]
class project_bs::runtime_models::bill::bill_data.dart::BillData--><g id="elem_project_bs::runtime_models::bill::bill_data.dart::BillData"><rect fill="#F1F1F1" height="48" id="project_bs::runtime_models::bill::bill_data.dart::BillData" rx="2.5" ry="2.5" style="stroke:#181818;stroke-width:0.5;" width="120" x="775" y="294"/><ellipse cx="790" cy="310" fill="#ADD1B2" rx="11" ry="11" style="stroke:#181818;stroke-width:1.0;"/><path d="M792.9688,315.6406 Q792.3906,315.9375 791.75,316.0781 Q791.1094,316.2344 790.4063,316.2344 Q787.9063,316.2344 786.5781,314.5938 Q785.2656,312.9375 785.2656,309.8125 Q785.2656,306.6875 786.5781,305.0313 Q787.9063,303.375 790.4063,303.375 Q791.1094,303.375 791.75,303.5313 Q792.4063,303.6875 792.9688,303.9844 L792.9688,306.7031 Q792.3438,306.125 791.75,305.8594 Q791.1563,305.5781 790.5313,305.5781 Q789.1875,305.5781 788.5,306.6563 Q787.8125,307.7188 787.8125,309.8125 Q787.8125,311.9063 788.5,312.9844 Q789.1875,314.0469 790.5313,314.0469 Q791.1563,314.0469 791.75,313.7813 Q792.3438,313.5 792.9688,312.9219 L792.9688,315.6406 Z " fill="#000000"/><text fill="#000000" font-family="sans-serif" font-size="14" lengthAdjust="spacing" textLength="88" x="804" y="314.8467">dart::BillData</text><line style="stroke:#181818;stroke-width:0.5;" x1="776" x2="894" y1="326" y2="326"/><line style="stroke:#181818;stroke-width:0.5;" x1="776" x2="894" y1="334" y2="334"/></g><!--MD5=[b20fc2dd84710b48b44d089ef3443705]
class project_bs::services::user_data_repository.dart::UserDataRepository--><g id="elem_project_bs::services::user_data_repository.dart::UserDataRepository"><rect codeLine="23" fill="#F1F1F1" height="162.0781" id="project_bs::services::user_data_repository.dart::UserDataRepository" rx="2.5" ry="2.5" style="stroke:#181818;stroke-width:0.5;" width="533" x="22.5" y="49"/><ellipse cx="197.25" cy="65" fill="#ADD1B2" rx="11" ry="11" style="stroke:#181818;stroke-width:1.0;"/><path d="M200.2188,70.6406 Q199.6406,70.9375 199,71.0781 Q198.3594,71.2344 197.6563,71.2344 Q195.1563,71.2344 193.8281,69.5938 Q192.5156,67.9375 192.5156,64.8125 Q192.5156,61.6875 193.8281,60.0313 Q195.1563,58.375 197.6563,58.375 Q198.3594,58.375 199,58.5313 Q199.6563,58.6875 200.2188,58.9844 L200.2188,61.7031 Q199.5938,61.125 199,60.8594 Q198.4063,60.5781 197.7813,60.5781 Q196.4375,60.5781 195.75,61.6563 Q195.0625,62.7188 195.0625,64.8125 Q195.0625,66.9063 195.75,67.9844 Q196.4375,69.0469 197.7813,69.0469 Q198.4063,69.0469 199,68.7813 Q199.5938,68.5 200.2188,67.9219 L200.2188,70.6406 Z " fill="#000000"/><text fill="#000000" font-family="sans-serif" font-size="14" lengthAdjust="spacing" textLength="175" x="217.75" y="69.8467">dart::UserDataRepository</text><line style="stroke:#181818;stroke-width:0.5;" x1="23.5" x2="554.5" y1="81" y2="81"/><ellipse cx="33.5" cy="94.6484" fill="none" rx="3" ry="3" style="stroke:#038048;stroke-width:1.0;"/><text fill="#000000" font-family="sans-serif" font-size="14" lengthAdjust="spacing" textLength="72" x="42.5" y="97.9951">String? uid</text><ellipse cx="33.5" cy="110.9453" fill="none" rx="3" ry="3" style="stroke:#038048;stroke-width:1.0;"/><text fill="#000000" font-family="sans-serif" font-size="14" lengthAdjust="spacing" textLength="124" x="42.5" y="114.292">dynamic userData</text><ellipse cx="33.5" cy="127.2422" fill="none" rx="3" ry="3" style="stroke:#038048;stroke-width:1.0;"/><text fill="#000000" font-family="sans-serif" font-size="14" lengthAdjust="spacing" textLength="260" x="42.5" y="130.5889">Stream&lt;UserData?&gt; userDataStream</text><ellipse cx="33.5" cy="143.5391" fill="none" rx="3" ry="3" style="stroke:#038048;stroke-width:1.0;"/><text fill="#000000" font-family="sans-serif" font-size="14" lengthAdjust="spacing" textLength="507" x="42.5" y="146.8857">DocumentReference&lt;Map&lt;String, dynamic&gt;&gt; userDocumentReference</text><line style="stroke:#181818;stroke-width:0.5;" x1="23.5" x2="554.5" y1="154.1875" y2="154.1875"/><ellipse cx="33.5" cy="167.8359" fill="#84BE84" rx="3" ry="3" style="stroke:#038048;stroke-width:1.0;"/><text fill="#000000" font-family="sans-serif" font-size="14" lengthAdjust="spacing" textLength="151" x="42.5" y="171.1826">T Function&lt;T&gt;() read</text><ellipse cx="33.5" cy="184.1328" fill="#84BE84" rx="3" ry="3" style="stroke:#038048;stroke-width:1.0;"/><text fill="#000000" font-family="sans-serif" font-size="14" lengthAdjust="spacing" textLength="170" x="42.5" y="187.4795">dynamic pushUserData()</text><ellipse cx="33.5" cy="200.4297" fill="#84BE84" rx="3" ry="3" style="stroke:#038048;stroke-width:1.0;"/><text fill="#000000" font-family="sans-serif" font-size="14" lengthAdjust="spacing" textLength="249" x="42.5" y="203.7764">UserData? snapshotToRuntimeObj()</text></g><!--MD5=[1e0e485aa70d9b78f2031bbc3be34341]
reverse link project_bs::services::bill_data_repository.dart::BillDataRepository to project_bs::runtime_models::user::user_data.dart::UserData--><g id="link_project_bs::services::bill_data_repository.dart::BillDataRepository_project_bs::runtime_models::user::user_data.dart::UserData"><path codeLine="20" d="M621.49,224.44 C562.41,250.3 503.43,276.11 462.82,293.88 " fill="none" id="project_bs::services::bill_data_repository.dart::BillDataRepository-backto-project_bs::runtime_models::user::user_data.dart::UserData" style="stroke:#181818;stroke-width:1.0;"/><polygon fill="none" points="633.7,219.1,626.5996,217.8412,622.7067,223.9112,629.8071,225.17,633.7,219.1" style="stroke:#181818;stroke-width:1.0;"/></g><!--MD5=[90615a231efc8462b5c32856c4e9810f]
reverse link project_bs::services::bill_data_repository.dart::BillDataRepository to project_bs::runtime_models::bill::bill_data.dart::BillData--><g id="link_project_bs::services::bill_data_repository.dart::BillDataRepository_project_bs::runtime_models::bill::bill_data.dart::BillData"><path codeLine="21" d="M835,232.37 C835,255.5 835,277.93 835,293.88 " fill="none" id="project_bs::services::bill_data_repository.dart::BillDataRepository-backto-project_bs::runtime_models::bill::bill_data.dart::BillData" style="stroke:#181818;stroke-width:1.0;"/><polygon fill="none" points="835,219.1,831,225.1,835,231.1,839,225.1,835,219.1" style="stroke:#181818;stroke-width:1.0;"/></g><!--MD5=[46a33ba883cc1fe5c9919eeca4c5008b]
reverse link project_bs::services::user_data_repository.dart::UserDataRepository to project_bs::runtime_models::user::user_data.dart::UserData--><g id="link_project_bs::services::user_data_repository.dart::UserDataRepository_project_bs::runtime_models::user::user_data.dart::UserData"><path codeLine="32" d="M348.29,222.15 C365.53,248.63 382.89,275.32 394.79,293.61 " fill="none" id="project_bs::services::user_data_repository.dart::UserDataRepository-backto-project_bs::runtime_models::user::user_data.dart::UserData" style="stroke:#181818;stroke-width:1.0;"/><polygon fill="none" points="341.19,211.23,341.1065,218.4406,347.7303,221.291,347.8138,214.0804,341.19,211.23" style="stroke:#181818;stroke-width:1.0;"/></g><!--MD5=[79fcb3944ce40856eef6b754b56c9c52]
@startuml
' class "project_bs::services::authentication_service.dart::AuthenticationService" {
'     -FirebaseAuth _firebaseAuth
'     +Stream<User?> userAuthState
'     +dynamic isValid_Email()
'     +dynamic createUserWith_EmailAndPassword()
'     +dynamic signInWith_EmailAndPassword()
'     +dynamic signOut()
' }

class "project_bs::services::bill_data_repository.dart::BillDataRepository" {
    +T Function<T>() read
    -CollectionReference<Map<String, dynamic>> _billCollection
    +Stream<List<BillData>?> billDataStream
    +dynamic billDocumentSnapshots
    +UserData? userData
    +dynamic createBill()
    +dynamic pushBillData()
    +BillData? snapshotToRuntimeObj()
}
"project_bs::services::bill_data_repository.dart::BillDataRepository" o- - "project_bs::runtime_models::user::user_data.dart::UserData"
"project_bs::services::bill_data_repository.dart::BillDataRepository" o- - "project_bs::runtime_models::bill::bill_data.dart::BillData"

class "project_bs::services::user_data_repository.dart::UserDataRepository" {
    +T Function<T>() read
    +String? uid
    +dynamic userData
    +Stream<UserData?> userDataStream
    +DocumentReference<Map<String, dynamic>> userDocumentReference
    +dynamic pushUserData()
    +UserData? snapshotToRuntimeObj()
}
"project_bs::services::user_data_repository.dart::UserDataRepository" o- - "project_bs::runtime_models::user::user_data.dart::UserData"
@enduml

@startuml

class "project_bs::services::bill_data_repository.dart::BillDataRepository" {
    +T Function<T>() read
    -CollectionReference<Map<String, dynamic>> _billCollection
    +Stream<List<BillData>?> billDataStream
    +dynamic billDocumentSnapshots
    +UserData? userData
    +dynamic createBill()
    +dynamic pushBillData()
    +BillData? snapshotToRuntimeObj()
}
"project_bs::services::bill_data_repository.dart::BillDataRepository" o- - "project_bs::runtime_models::user::user_data.dart::UserData"
"project_bs::services::bill_data_repository.dart::BillDataRepository" o- - "project_bs::runtime_models::bill::bill_data.dart::BillData"

class "project_bs::services::user_data_repository.dart::UserDataRepository" {
    +T Function<T>() read
    +String? uid
    +dynamic userData
    +Stream<UserData?> userDataStream
    +DocumentReference<Map<String, dynamic>> userDocumentReference
    +dynamic pushUserData()
    +UserData? snapshotToRuntimeObj()
}
"project_bs::services::user_data_repository.dart::UserDataRepository" o- - "project_bs::runtime_models::user::user_data.dart::UserData"
@enduml

PlantUML version 1.2022.7(Mon Aug 22 17:01:30 UTC 2022)
(GPL source distribution)
Java Runtime: OpenJDK Runtime Environment
JVM: OpenJDK 64-Bit Server VM
Default Encoding: UTF-8
Language: en
Country: null
--></g></svg>