<svg width="107" height="112" viewBox="0 0 107 112" fill="none" xmlns="http://www.w3.org/2000/svg">
<path d="M5.81543 108.293C4.74121 108.293 3.75488 108.176 2.85645 107.941C1.96777 107.707 1.21582 107.385 0.600586 106.975V102.961C1.48926 103.459 2.3584 103.85 3.20801 104.133C4.06738 104.406 4.94629 104.543 5.84473 104.543C6.34277 104.543 6.80176 104.499 7.22168 104.411C7.65137 104.313 8.02246 104.167 8.33496 103.972C8.64746 103.776 8.8916 103.532 9.06738 103.239C9.24316 102.946 9.33105 102.604 9.33105 102.214C9.33105 101.657 9.21875 101.193 8.99414 100.822C8.7793 100.441 8.47656 100.09 8.08594 99.7676C7.70508 99.4453 7.26074 99.0986 6.75293 98.7275C6.15723 98.2979 5.57617 97.8096 5.00977 97.2627C4.45312 96.7158 3.99414 96.0811 3.63281 95.3584C3.27148 94.626 3.09082 93.7715 3.09082 92.7949C3.09082 91.8379 3.26172 90.9639 3.60352 90.1729C3.95508 89.3818 4.45312 88.6934 5.09766 88.1074C5.74219 87.5215 6.51367 87.0723 7.41211 86.7598C8.32031 86.4375 9.33105 86.2764 10.4443 86.2764C11.5479 86.2764 12.5684 86.3984 13.5059 86.6426C14.4531 86.877 15.3711 87.2383 16.2598 87.7266L14.6631 91.1396C13.9014 90.7783 13.1738 90.5098 12.4805 90.334C11.7969 90.1484 11.1182 90.0557 10.4443 90.0557C10.0439 90.0557 9.67285 90.1143 9.33105 90.2314C8.99902 90.3389 8.70605 90.5 8.45215 90.7148C8.20801 90.9199 8.01758 91.1689 7.88086 91.4619C7.74414 91.7549 7.67578 92.0869 7.67578 92.458C7.67578 92.9658 7.77832 93.4004 7.9834 93.7617C8.19824 94.123 8.50098 94.46 8.8916 94.7725C9.29199 95.0752 9.77051 95.4121 10.3271 95.7832C11.1182 96.3008 11.7725 96.8574 12.29 97.4531C12.8174 98.0391 13.208 98.6787 13.4619 99.3721C13.7256 100.065 13.8574 100.832 13.8574 101.672C13.8574 102.795 13.6475 103.771 13.2275 104.602C12.8076 105.432 12.2266 106.12 11.4844 106.667C10.752 107.214 9.89746 107.624 8.9209 107.897C7.9541 108.161 6.91895 108.293 5.81543 108.293ZM16.6846 108L21.2109 86.584H27.1875C28.9258 86.584 30.3174 86.8477 31.3623 87.375C32.417 87.8926 33.1787 88.6201 33.6475 89.5576C34.126 90.4951 34.3652 91.584 34.3652 92.8242C34.3652 94.0938 34.1309 95.2021 33.6621 96.1494C33.1934 97.0967 32.5342 97.8877 31.6846 98.5225C30.8447 99.1475 29.8584 99.6162 28.7256 99.9287C27.5928 100.231 26.3623 100.383 25.0342 100.383H22.749L21.1523 108H16.6846ZM23.5547 96.6621H25.3857C26.2744 96.6621 27.0508 96.5156 27.7148 96.2227C28.3887 95.9297 28.9111 95.5049 29.2822 94.9482C29.6631 94.3916 29.8535 93.7227 29.8535 92.9414C29.8535 92.043 29.6143 91.3789 29.1357 90.9492C28.667 90.5195 27.959 90.3047 27.0117 90.3047H24.9023L23.5547 96.6621ZM34.9951 108L39.5215 86.584H44.0039L40.2539 104.25H47.7539L46.9629 108H34.9951ZM50.5225 108L55.0781 86.584H59.5605L54.9902 108H50.5225ZM63.2812 108L67.002 90.3633H61.8457L62.6514 86.584H77.4463L76.6406 90.3633H71.4697L67.749 108H63.2812ZM75.8643 108L79.3359 91.623H83.7451L80.2734 108H75.8643ZM82.251 89.5869C81.626 89.5869 81.0986 89.4502 80.6689 89.1768C80.249 88.9033 80.0391 88.4395 80.0391 87.7852C80.0391 87.2188 80.1416 86.7451 80.3467 86.3643C80.5615 85.9834 80.8691 85.6953 81.2695 85.5C81.6699 85.3047 82.1484 85.207 82.7051 85.207C83.291 85.207 83.7988 85.334 84.2285 85.5879C84.668 85.8418 84.8877 86.3008 84.8877 86.9648C84.8877 87.7461 84.6729 88.3809 84.2432 88.8691C83.8135 89.3477 83.1494 89.5869 82.251 89.5869ZM88.125 108L91.8457 90.3633H86.6895L87.4951 86.584H102.29L101.484 90.3633H96.3135L92.5928 108H88.125Z" fill="black"/>
<path d="M21.7647 21C21.7647 19.8954 22.6601 19 23.7647 19H55.1047C56.311 19 57.2428 20.0599 57.0882 21.2562L50.5757 71.668C50.4469 72.6652 49.5977 73.4118 48.5922 73.4118H23.7647C22.6601 73.4118 21.7647 72.5163 21.7647 71.4118V21Z" fill="#1B9235"/>
<path d="M50.677 71.6643C50.5498 72.6631 49.6999 73.4117 48.693 73.4117L2.275 73.4117C1.06869 73.4117 0.136926 72.3519 0.29148 71.1555L6.804 20.7437C6.93283 19.7465 7.78201 19 8.78752 19L55.109 19C56.3138 19 57.2451 20.0573 57.093 21.2525L50.677 71.6643Z" fill="#1B9235"/>
<path d="M54.165 28.3676C49.4522 27.7709 44.6953 29.0708 40.9408 31.9814C37.1864 34.8919 34.7419 39.1747 34.1452 43.8876C33.5485 48.6004 34.8484 53.3573 37.7589 57.1118C40.6695 60.8662 44.9523 63.3107 49.6651 63.9074L51.9151 46.1375L54.165 28.3676Z" fill="#FFFB9E"/>
<path d="M70.0196 12.8823C70.0196 11.7778 70.915 10.8823 72.0196 10.8823H103.36C104.566 10.8823 105.498 11.9422 105.343 13.1386L98.8306 63.5503C98.7018 64.5476 97.8526 65.2941 96.8471 65.2941H72.0196C70.915 65.2941 70.0196 64.3987 70.0196 63.2941V12.8823Z" fill="#26B645"/>
<path d="M98.9319 63.5466C98.8047 64.5455 97.9548 65.2941 96.9479 65.2941L50.5299 65.2941C49.3236 65.2941 48.3918 64.2342 48.5464 63.0378L55.0589 12.6261C55.1877 11.6288 56.0369 10.8823 57.0424 10.8823L103.364 10.8823C104.569 10.8823 105.5 11.9397 105.348 13.1348L98.9319 63.5466Z" fill="#26B645"/>
<mask id="mask0_201_6585" style="mask-type:alpha" maskUnits="userSpaceOnUse" x="41" y="0" width="44" height="88">
<rect x="48.8571" width="36.1429" height="5.16378" fill="#D9D9D9"/>
<path d="M47.2857 10.3276H83.4286V15.4914H47.2857V10.3276Z" fill="#D9D9D9"/>
<rect x="45.7143" y="20.6551" width="36.1429" height="5.16378" fill="#D9D9D9"/>
<rect x="45.7143" y="30.9827" width="36.1429" height="5.16378" fill="#D9D9D9"/>
<rect x="44.1429" y="41.3103" width="36.1429" height="5.16378" fill="#D9D9D9"/>
<rect x="44.1429" y="51.6378" width="36.1429" height="5.16378" fill="#D9D9D9"/>
<rect x="42.5714" y="61.9654" width="36.1429" height="5.16378" fill="#D9D9D9"/>
<rect x="41" y="72.2929" width="36.1429" height="5.16378" fill="#D9D9D9"/>
<rect x="41" y="82.6205" width="36.1429" height="5.16378" fill="#D9D9D9"/>
</mask>
<g mask="url(#mask0_201_6585)">
<path d="M49.4912 55.2215C54.1485 55.8296 58.8567 54.5627 62.5799 51.6995C66.3032 48.8363 68.7365 44.6113 69.3447 39.9539C69.9528 35.2966 68.6859 30.5884 65.8227 26.8652C62.9595 23.1419 58.7345 20.7086 54.0772 20.1004L51.7842 37.6609L49.4912 55.2215Z" fill="#FFFB9E"/>
</g>
</svg>
